<svg xmlns="http://www.w3.org/2000/svg" viewBox="0 0 64 64" width="64" height="64">
  <defs>
    <clipPath id="fi"><circle cx="32" cy="32" r="21"/></clipPath>
  </defs>
  <circle cx="32" cy="32" r="25" fill="none" stroke="#6c5ce7" stroke-width="5.5"/>
  <g clip-path="url(#fi)">
    <path d="M 7.5 39.2 L 8.3 38.2 L 9.1 37.2 L 9.9 36.0 L 10.8 34.8 L 11.6 33.5 L 12.4 32.2 L 13.2 30.8 L 14.0 29.6 L 14.8 28.3 L 15.7 27.1 L 16.5 26.0 L 17.3 25.0 L 18.1 24.1 L 18.9 23.4 L 19.8 22.8 L 20.6 22.4 L 21.4 22.1 L 22.2 22.0 L 23.0 22.1 L 23.8 22.3 L 24.6 22.7 L 25.5 23.3 L 26.3 24.0 L 27.1 24.9 L 27.9 25.9 L 28.7 27.0 L 29.6 28.2 L 30.4 29.4 L 31.2 30.7 L 32.0 32.0 L 32.8 33.3 L 33.6 34.6 L 34.5 35.8 L 35.3 37.0 L 36.1 38.1 L 36.9 39.1 L 37.7 40.0 L 38.5 40.7 L 39.4 41.3 L 40.2 41.7 L 41.0 41.9 L 41.8 42.0 L 42.6 41.9 L 43.4 41.6 L 44.2 41.2 L 45.1 40.6 L 45.9 39.9 L 46.7 39.0 L 47.5 38.0 L 48.3 36.9 L 49.1 35.7 L 50.0 34.4 L 50.8 33.2 L 51.6 31.8 L 52.4 30.5 L 53.2 29.2 L 54.0 28.0 L 54.9 26.8 L 55.7 25.8 L 56.5 24.8"
          fill="none" stroke="#6c5ce7" stroke-width="1.8" stroke-linecap="round" stroke-linejoin="round"/>
    <path d="M 7.5 25.1 L 8.3 24.2 L 9.1 23.4 L 9.9 22.8 L 10.8 22.4 L 11.6 22.1 L 12.4 22.0 L 13.2 22.1 L 14.0 22.3 L 14.8 22.7 L 15.7 23.3 L 16.5 24.0 L 17.3 24.8 L 18.1 25.8 L 18.9 26.9 L 19.8 28.1 L 20.6 29.3 L 21.4 30.6 L 22.2 31.9 L 23.0 33.2 L 23.8 34.5 L 24.6 35.8 L 25.5 37.0 L 26.3 38.1 L 27.1 39.0 L 27.9 39.9 L 28.7 40.6 L 29.6 41.2 L 30.4 41.7 L 31.2 41.9 L 32.0 42.0 L 32.8 41.9 L 33.6 41.7 L 34.5 41.2 L 35.3 40.6 L 36.1 39.9 L 36.9 39.0 L 37.7 38.1 L 38.5 37.0 L 39.4 35.8 L 40.2 34.5 L 41.0 33.2 L 41.8 31.9 L 42.6 30.6 L 43.4 29.3 L 44.2 28.1 L 45.1 26.9 L 45.9 25.8 L 46.7 24.8 L 47.5 24.0 L 48.3 23.3 L 49.1 22.7 L 50.0 22.3 L 50.8 22.1 L 51.6 22.0 L 52.4 22.1 L 53.2 22.4 L 54.0 22.8 L 54.9 23.4 L 55.7 24.2 L 56.5 25.1"
          fill="none" stroke="#ff6b6b" stroke-width="1.8" stroke-linecap="round" stroke-linejoin="round"/>
  </g>
</svg>
