<svg xmlns="http://www.w3.org/2000/svg" viewBox="0 0 64 64" width="64" height="64">
  <circle cx="32" cy="32" r="25" fill="none" stroke="#6c5ce7" stroke-width="5.5"/>
  <path d="M 12.5 32.0 L 13.3 30.7 L 14.1 29.4 L 14.9 28.2 L 15.8 27.0 L 16.6 25.9 L 17.4 24.9 L 18.2 24.1 L 19.0 23.3 L 19.8 22.8 L 20.6 22.3 L 21.4 22.1 L 22.2 22.0 L 23.1 22.1 L 23.9 22.3 L 24.7 22.8 L 25.5 23.3 L 26.3 24.1 L 27.1 24.9 L 27.9 25.9 L 28.8 27.0 L 29.6 28.2 L 30.4 29.4 L 31.2 30.7 L 32.0 32.0 L 32.8 33.3 L 33.6 34.6 L 34.4 35.8 L 35.2 37.0 L 36.1 38.1 L 36.9 39.1 L 37.7 39.9 L 38.5 40.7 L 39.3 41.2 L 40.1 41.7 L 40.9 41.9 L 41.8 42.0 L 42.6 41.9 L 43.4 41.7 L 44.2 41.2 L 45.0 40.7 L 45.8 39.9 L 46.6 39.1 L 47.4 38.1 L 48.2 37.0 L 49.1 35.8 L 49.9 34.6 L 50.7 33.3 L 51.5 32.0"
        fill="none" stroke="#6c5ce7" stroke-width="1.8" stroke-linecap="round" stroke-linejoin="round"/>
  <path d="M 12.5 22.0 L 13.3 22.1 L 14.1 22.3 L 14.9 22.8 L 15.8 23.3 L 16.6 24.1 L 17.4 24.9 L 18.2 25.9 L 19.0 27.0 L 19.8 28.2 L 20.6 29.4 L 21.4 30.7 L 22.2 32.0 L 23.1 33.3 L 23.9 34.6 L 24.7 35.8 L 25.5 37.0 L 26.3 38.1 L 27.1 39.1 L 27.9 39.9 L 28.8 40.7 L 29.6 41.2 L 30.4 41.7 L 31.2 41.9 L 32.0 42.0 L 32.8 41.9 L 33.6 41.7 L 34.4 41.2 L 35.2 40.7 L 36.1 39.9 L 36.9 39.1 L 37.7 38.1 L 38.5 37.0 L 39.3 35.8 L 40.1 34.6 L 40.9 33.3 L 41.8 32.0 L 42.6 30.7 L 43.4 29.4 L 44.2 28.2 L 45.0 27.0 L 45.8 25.9 L 46.6 24.9 L 47.4 24.1 L 48.2 23.3 L 49.1 22.8 L 49.9 22.3 L 50.7 22.1 L 51.5 22.0"
        fill="none" stroke="#ff6b6b" stroke-width="1.8" stroke-linecap="round" stroke-linejoin="round"/>
</svg>
