<svg xmlns="http://www.w3.org/2000/svg" viewBox="0 0 512 512" width="512" height="512">
  <defs>
    <clipPath id="inner"><circle cx="256" cy="256" r="168"/></clipPath>
  </defs>
  <circle cx="256" cy="256" r="200" fill="none" stroke="#6c5ce7" stroke-width="44"/>
  <g clip-path="url(#inner)">
    <!-- sin(x) — computed from Math.sin, 60 segments -->
    <path d="M 60.0 313.7 L 66.5 305.9 L 73.1 297.3 L 79.6 287.9 L 86.1 278.1 L 92.7 267.8 L 99.2 257.3 L 105.7 246.8 L 112.3 236.4 L 118.8 226.4 L 125.3 216.9 L 131.9 208.1 L 138.4 200.1 L 144.9 193.1 L 151.5 187.2 L 158.0 182.4 L 164.5 178.9 L 171.1 176.8 L 177.6 176.0 L 184.1 176.6 L 190.7 178.6 L 197.2 181.9 L 203.7 186.5 L 210.3 192.3 L 216.8 199.2 L 223.3 207.1 L 229.9 215.8 L 236.4 225.2 L 242.9 235.2 L 249.5 245.5 L 256.0 256.0 L 262.5 266.5 L 269.1 276.8 L 275.6 286.8 L 282.1 296.2 L 288.7 304.9 L 295.2 312.8 L 301.7 319.7 L 308.3 325.5 L 314.8 330.1 L 321.3 333.4 L 327.9 335.4 L 334.4 336.0 L 340.9 335.2 L 347.5 333.1 L 354.0 329.6 L 360.5 324.8 L 367.1 318.9 L 373.6 311.9 L 380.1 303.9 L 386.7 295.1 L 393.2 285.6 L 399.7 275.6 L 406.3 265.2 L 412.8 254.7 L 419.3 244.2 L 425.9 233.9 L 432.4 224.1 L 438.9 214.7 L 445.5 206.1 L 452.0 198.3"
          fill="none" stroke="#6c5ce7" stroke-width="14" stroke-linecap="round" stroke-linejoin="round"/>
    <!-- cos(x) — computed from Math.cos, 60 segments -->
    <path d="M 60.0 200.6 L 66.5 193.5 L 73.1 187.5 L 79.6 182.7 L 86.1 179.1 L 92.7 176.9 L 99.2 176.0 L 105.7 176.5 L 112.3 178.4 L 118.8 181.7 L 125.3 186.2 L 131.9 191.9 L 138.4 198.8 L 144.9 206.6 L 151.5 215.3 L 158.0 224.6 L 164.5 234.6 L 171.1 244.9 L 177.6 255.4 L 184.1 265.9 L 190.7 276.2 L 197.2 286.2 L 203.7 295.6 L 210.3 304.4 L 216.8 312.3 L 223.3 319.3 L 229.9 325.2 L 236.4 329.8 L 242.9 333.2 L 249.5 335.3 L 256.0 336.0 L 262.5 335.3 L 269.1 333.2 L 275.6 329.8 L 282.1 325.2 L 288.7 319.3 L 295.2 312.3 L 301.7 304.4 L 308.3 295.6 L 314.8 286.2 L 321.3 276.2 L 327.9 265.9 L 334.4 255.4 L 340.9 244.9 L 347.5 234.6 L 354.0 224.6 L 360.5 215.3 L 367.1 206.6 L 373.6 198.8 L 380.1 191.9 L 386.7 186.2 L 393.2 181.7 L 399.7 178.4 L 406.3 176.5 L 412.8 176.0 L 419.3 176.9 L 425.9 179.1 L 432.4 182.7 L 438.9 187.5 L 445.5 193.5 L 452.0 200.6"
          fill="none" stroke="#ff6b6b" stroke-width="14" stroke-linecap="round" stroke-linejoin="round"/>
  </g>
</svg>
