<svg xmlns="http://www.w3.org/2000/svg" viewBox="0 0 512 512" width="512" height="512">
  <circle cx="256" cy="256" r="200" fill="none" stroke="#6c5ce7" stroke-width="44"/>
  <!-- sin(x) — exact, 48 segments -->
  <path d="M 100.0 256.0 L 106.5 245.6 L 113.0 235.3 L 119.5 225.4 L 126.0 216.0 L 132.5 207.3 L 139.0 199.4 L 145.5 192.5 L 152.0 186.7 L 158.5 182.1 L 165.0 178.7 L 171.5 176.7 L 178.0 176.0 L 184.5 176.7 L 191.0 178.7 L 197.5 182.1 L 204.0 186.7 L 210.5 192.5 L 217.0 199.4 L 223.5 207.3 L 230.0 216.0 L 236.5 225.4 L 243.0 235.3 L 249.5 245.6 L 256.0 256.0 L 262.5 266.4 L 269.0 276.7 L 275.5 286.6 L 282.0 296.0 L 288.5 304.7 L 295.0 312.6 L 301.5 319.5 L 308.0 325.3 L 314.5 329.9 L 321.0 333.3 L 327.5 335.3 L 334.0 336.0 L 340.5 335.3 L 347.0 333.3 L 353.5 329.9 L 360.0 325.3 L 366.5 319.5 L 373.0 312.6 L 379.5 304.7 L 386.0 296.0 L 392.5 286.6 L 399.0 276.7 L 405.5 266.4 L 412.0 256.0"
        fill="none" stroke="#6c5ce7" stroke-width="14" stroke-linecap="round"/>
  <!-- cos(x) — exact, 48 segments -->
  <path d="M 100.0 176.0 L 106.5 176.7 L 113.0 178.7 L 119.5 182.1 L 126.0 186.7 L 132.5 192.5 L 139.0 199.4 L 145.5 207.3 L 152.0 216.0 L 158.5 225.4 L 165.0 235.3 L 171.5 245.6 L 178.0 256.0 L 184.5 266.4 L 191.0 276.7 L 197.5 286.6 L 204.0 296.0 L 210.5 304.7 L 217.0 312.6 L 223.5 319.5 L 230.0 325.3 L 236.5 329.9 L 243.0 333.3 L 249.5 335.3 L 256.0 336.0 L 262.5 335.3 L 269.0 333.3 L 275.5 329.9 L 282.0 325.3 L 288.5 319.5 L 295.0 312.6 L 301.5 304.7 L 308.0 296.0 L 314.5 286.6 L 321.0 276.7 L 327.5 266.4 L 334.0 256.0 L 340.5 245.6 L 347.0 235.3 L 353.5 225.4 L 360.0 216.0 L 366.5 207.3 L 373.0 199.4 L 379.5 192.5 L 386.0 186.7 L 392.5 182.1 L 399.0 178.7 L 405.5 176.7 L 412.0 176.0"
        fill="none" stroke="#ff6b6b" stroke-width="14" stroke-linecap="round"/>
</svg>
